<svg width="33" height="33" viewBox="0 0 33 33" fill="none" xmlns="http://www.w3.org/2000/svg">
<path fill-rule="evenodd" clip-rule="evenodd" d="M5.05842 8.10321C5.05842 7.21956 5.77477 6.50321 6.65842 6.50321H25.8584C26.7421 6.50321 27.4584 7.21956 27.4584 8.10321C27.4584 8.98686 26.7421 9.70321 25.8584 9.70321H6.65842C5.77477 9.70321 5.05842 8.98686 5.05842 8.10321Z" fill="white"/>
<path fill-rule="evenodd" clip-rule="evenodd" d="M5.05842 16.1032C5.05842 15.2196 5.77477 14.5032 6.65842 14.5032H25.8584C26.7421 14.5032 27.4584 15.2196 27.4584 16.1032C27.4584 16.9869 26.7421 17.7032 25.8584 17.7032H6.65842C5.77477 17.7032 5.05842 16.9869 5.05842 16.1032Z" fill="white"/>
<path fill-rule="evenodd" clip-rule="evenodd" d="M5.05842 24.1032C5.05842 23.2195 5.77477 22.5032 6.65842 22.5032H16.2584C17.1421 22.5032 17.8584 23.2195 17.8584 24.1032C17.8584 24.9869 17.1421 25.7032 16.2584 25.7032H6.65842C5.77477 25.7032 5.05842 24.9869 5.05842 24.1032Z" fill="white"/>
</svg>
