<svg width="310" height="63" viewBox="0 0 310 63" fill="none" xmlns="http://www.w3.org/2000/svg">
<path fill-rule="evenodd" clip-rule="evenodd" d="M104.274 32.8017H103.298V8.92309C103.298 6.88651 101.807 5.41002 99.751 5.41002H85.7708C83.7663 5.41002 82.2244 6.88651 82.2244 8.92309V10.9596C82.2244 21.3969 80.3227 28.2195 76.0567 32.8017C74.2063 32.9545 72.8185 34.4309 72.8185 36.3148V43.29C72.8185 45.2756 74.3091 46.8031 76.3136 46.8031C78.2667 46.8031 79.7573 45.2756 79.7573 43.29V39.0132H100.882V43.29C100.882 45.2756 102.372 46.8031 104.377 46.8031C106.33 46.8031 107.82 45.2756 107.82 43.29V36.3148C107.82 34.3291 106.33 32.8017 104.274 32.8017ZM88.8547 11.6215H96.3588V32.8017H83.201C86.953 28.1176 88.7519 21.2951 88.8547 11.6215ZM133.982 13.2507C132.8 13.2507 131.875 13.7599 130.898 14.9309L120.464 27.914V16.7129C120.464 14.7272 118.974 13.2507 117.021 13.2507C115.016 13.2507 113.526 14.7272 113.526 16.7129V36.1111C113.526 38.0967 115.016 39.6242 116.969 39.6242C118.151 39.6242 119.077 39.115 120.053 37.9441L130.538 25.0628V36.1111C130.538 38.0967 132.029 39.6242 133.982 39.6242C135.935 39.6242 137.426 38.0967 137.426 36.1111V16.7129C137.426 14.7272 135.935 13.2507 133.982 13.2507ZM155.62 13.2507C151.92 13.2507 148.579 14.3708 146.42 16.3565C145.495 17.2221 144.981 18.1385 144.981 19.1058C144.981 20.6333 146.266 21.9061 147.962 21.9061C148.63 21.9061 149.196 21.7024 150.018 21.0915C151.509 19.8187 153.102 19.2077 154.901 19.2077C157.985 19.2077 159.681 20.8369 159.681 23.6372V24.7573H153.308C147.345 24.7573 143.696 27.5575 143.696 32.089C143.696 36.5693 147.243 39.6242 152.485 39.6242C155.518 39.6242 158.088 38.6568 159.938 36.9258C160.246 38.4532 161.583 39.5732 163.279 39.5732C165.18 39.5732 166.62 38.1477 166.62 36.162V24.0445C166.62 17.1711 162.611 13.2507 155.62 13.2507ZM154.336 34.5837C152.074 34.5837 150.686 33.5144 150.686 31.8343C150.686 30.1542 151.92 29.2886 154.233 29.2886H159.681V29.5941C159.681 32.4453 157.368 34.5837 154.336 34.5837ZM211.644 21.9061C211.644 13.3525 205.425 7.8538 195.557 7.80296V6.07185C195.557 4.03527 194.066 2.55884 192.113 2.55884C190.108 2.55884 188.618 4.03527 188.618 6.07185V7.80296C178.801 7.9048 172.53 13.4544 172.53 21.9061C172.53 30.4597 178.904 36.162 188.618 36.2639V38.3004C188.618 40.337 190.108 41.8134 192.113 41.8134C194.066 41.8134 195.557 40.337 195.557 38.3004V36.2639C205.322 36.162 211.644 30.5106 211.644 21.9061ZM179.366 22.1097C179.366 16.9166 182.861 13.7089 188.618 13.6581V30.3579C182.759 30.3069 179.366 27.252 179.366 22.1097ZM195.557 30.3579V13.6581C201.313 13.6581 204.86 16.8656 204.86 22.1097C204.86 27.303 201.364 30.3579 195.557 30.3579ZM228.143 13.2507C224.442 13.2507 221.101 14.3708 218.943 16.3565C218.017 17.2221 217.503 18.1385 217.503 19.1058C217.503 20.6333 218.788 21.9061 220.484 21.9061C221.153 21.9061 221.718 21.7024 222.54 21.0915C224.031 19.8187 225.624 19.2077 227.423 19.2077C230.507 19.2077 232.203 20.8369 232.203 23.6372V24.7573H225.83C219.868 24.7573 216.218 27.5575 216.218 32.089C216.218 36.5693 219.765 39.6242 225.008 39.6242C228.04 39.6242 230.61 38.6568 232.46 36.9258C232.769 38.4532 234.105 39.5732 235.801 39.5732C237.703 39.5732 239.142 38.1477 239.142 36.162V24.0445C239.142 17.1711 235.133 13.2507 228.143 13.2507ZM226.858 34.5837C224.596 34.5837 223.209 33.5144 223.209 31.8343C223.209 30.1542 224.442 29.2886 226.755 29.2886H232.203V29.5941C232.203 32.4453 229.89 34.5837 226.858 34.5837ZM261.346 13.2507C258.056 13.2507 255.332 14.4217 253.585 16.4583C253.482 14.5745 252.094 13.1999 250.244 13.1999C248.291 13.1999 246.8 14.6764 246.8 16.6111V45.3266C246.8 47.3122 248.291 48.7887 250.295 48.7887C252.248 48.7887 253.739 47.3122 253.739 45.3266V36.5693C255.486 38.5041 258.159 39.6242 261.346 39.6242C268.49 39.6242 273.681 34.0236 273.681 26.3865C273.681 18.7495 268.49 13.2507 261.346 13.2507ZM260.061 33.3618C256.257 33.3618 253.636 30.5106 253.636 26.3865C253.636 22.2625 256.206 19.4623 260.061 19.4623C263.916 19.4623 266.64 22.3644 266.64 26.4374C266.64 30.4597 263.864 33.3618 260.061 33.3618ZM283.601 39.6242C285.554 39.6242 287.045 38.0967 287.045 36.1111V26.1829L292.236 32.6998C292.75 33.2599 293.521 33.5654 294.343 33.5654C295.165 33.5654 295.936 33.2599 296.45 32.6998L301.642 26.1829V36.1111C301.642 38.0967 303.132 39.6242 305.085 39.6242C307.09 39.6242 308.58 38.0967 308.58 36.1111V16.7129C308.58 14.7781 307.09 13.2507 305.085 13.2507C303.903 13.2507 302.926 13.8617 302.258 14.6764L294.343 24.9609L286.428 14.6764C285.76 13.8617 284.783 13.2507 283.601 13.2507C281.596 13.2507 280.106 14.7781 280.106 16.7129V36.1111C280.106 38.0967 281.596 39.6242 283.601 39.6242Z" fill="#00662D"/>
<path fill-rule="evenodd" clip-rule="evenodd" d="M78.572 58.7595H78.3516V55.3528C78.3516 54.927 78.0319 54.5994 77.602 54.5994H75.078C74.6591 54.5994 74.3284 54.8942 74.3284 55.3092V55.3201C74.3284 57.0343 74.0749 58.0171 73.4246 58.7595H73.3695C72.9286 58.7595 72.6088 59.0762 72.6088 59.502V60.9214C72.6088 61.3473 72.9286 61.6747 73.3584 61.6747C73.7773 61.6747 74.0969 61.3581 74.0969 60.9214V60.0042H77.8446V60.9214C77.8446 61.3473 78.1643 61.6747 78.5831 61.6747C79.0019 61.6747 79.3216 61.3581 79.3216 60.9214V59.502C79.3216 59.0762 79.0019 58.7595 78.572 58.7595ZM75.8054 55.8442H76.8746V58.7595H74.9897C75.5409 58.148 75.7944 57.2199 75.8054 55.8442ZM84.8108 54.4794C84.5572 54.4794 84.3588 54.5886 84.1494 54.8396L81.9118 57.6239V55.2218C81.9118 54.796 81.5922 54.4794 81.1734 54.4794C80.7434 54.4794 80.4238 54.796 80.4238 55.2218V59.3818C80.4238 59.8077 80.7434 60.1353 81.1623 60.1353C81.4158 60.1353 81.6142 60.0261 81.8237 59.7748L84.0723 57.0125V59.3818C84.0723 59.8077 84.3919 60.1353 84.8108 60.1353C85.2296 60.1353 85.5493 59.8077 85.5493 59.3818V55.2218C85.5493 54.796 85.2296 54.4794 84.8108 54.4794ZM89.297 54.4794C88.5032 54.4794 87.7868 54.7195 87.324 55.1454C87.1254 55.331 87.0152 55.5276 87.0152 55.735C87.0152 56.0626 87.2908 56.3356 87.6545 56.3356C87.7979 56.3356 87.919 56.2918 88.0955 56.1608C88.4151 55.8878 88.7568 55.7569 89.1426 55.7569C89.8039 55.7569 90.1677 56.1062 90.1677 56.7068V56.9469H88.8009C87.5223 56.9469 86.7397 57.5475 86.7397 58.5192C86.7397 59.4801 87.5002 60.1353 88.6245 60.1353C89.2749 60.1353 89.8261 59.9277 90.2228 59.5564C90.2889 59.884 90.5756 60.1244 90.9393 60.1244C91.3471 60.1244 91.6557 59.8186 91.6557 59.3928V56.7941C91.6557 55.3201 90.7959 54.4794 89.297 54.4794ZM89.0214 59.0542C88.5364 59.0542 88.2387 58.8249 88.2387 58.4646C88.2387 58.1043 88.5032 57.9188 88.9993 57.9188H90.1677V57.9842C90.1677 58.5957 89.6716 59.0542 89.0214 59.0542ZM96.1308 54.7414C95.4805 54.7414 94.9184 54.9925 94.4995 55.4402C94.5877 54.3373 95.2381 53.704 96.6488 53.3437L97.6519 53.0817C98.0377 52.9835 98.2581 52.7433 98.2581 52.4157C98.2581 52.0554 97.9715 51.7605 97.6189 51.7605C97.5197 51.7605 97.4424 51.7824 97.189 51.848L96.2521 52.0881C93.9043 52.6887 92.9454 53.9553 92.9454 56.4338V56.936C92.9454 58.8687 94.0916 60.1244 95.8442 60.1244C97.4867 60.1244 98.7102 58.967 98.7102 57.4274C98.7102 55.9424 97.5637 54.7414 96.1308 54.7414ZM95.8222 58.7813C95.0727 58.7813 94.4664 58.1808 94.4664 57.4274C94.4664 56.6739 95.0616 56.0843 95.8222 56.0843C96.5937 56.0843 97.189 56.6739 97.189 57.4274C97.189 58.1808 96.5937 58.7813 95.8222 58.7813ZM102.392 54.4794C100.782 54.4794 99.5589 55.7023 99.5589 57.3073C99.5589 58.9232 100.826 60.1353 102.546 60.1353C103.185 60.1353 103.781 59.9606 104.276 59.633C104.541 59.4582 104.651 59.2836 104.651 59.0433C104.651 58.7049 104.387 58.4537 104.045 58.4537C103.935 58.4537 103.836 58.4865 103.725 58.5521C103.395 58.7595 102.987 58.8687 102.59 58.8687C101.785 58.8687 101.234 58.4756 101.058 57.7987H104.166C104.651 57.7987 104.982 57.5037 104.982 57.0452V57.0125C104.982 55.5493 103.88 54.4794 102.392 54.4794ZM102.359 55.6694C103.053 55.6694 103.516 56.1172 103.538 56.7613H101.058C101.223 56.0953 101.708 55.6694 102.359 55.6694ZM107.969 60.1353C108.399 60.1353 108.708 59.8077 108.708 59.3818V55.8332H109.887C110.262 55.8332 110.526 55.5712 110.526 55.2109C110.526 54.8614 110.262 54.5885 109.887 54.5885H106.062C105.698 54.5885 105.423 54.8614 105.423 55.2109C105.423 55.5712 105.698 55.8332 106.062 55.8332H107.23V59.3818C107.23 59.8077 107.55 60.1353 107.969 60.1353ZM115.74 54.4794C115.486 54.4794 115.288 54.5886 115.078 54.8396L112.841 57.6239V55.2218C112.841 54.796 112.521 54.4794 112.102 54.4794C111.673 54.4794 111.353 54.796 111.353 55.2218V59.3818C111.353 59.8077 111.673 60.1353 112.091 60.1353C112.345 60.1353 112.543 60.0261 112.753 59.7748L115.001 57.0125V59.3818C115.001 59.8077 115.321 60.1353 115.74 60.1353C116.159 60.1353 116.478 59.8077 116.478 59.3818V55.2218C116.478 54.796 116.159 54.4794 115.74 54.4794ZM121.979 54.4794C121.549 54.4794 121.229 54.796 121.229 55.2218V56.8159C120.954 56.9033 120.656 56.9469 120.391 56.9469C119.609 56.9469 119.179 56.4884 119.179 55.6585V55.2218C119.179 54.796 118.859 54.4794 118.44 54.4794C118.01 54.4794 117.702 54.796 117.702 55.2218V55.7569C117.702 57.2855 118.727 58.3008 120.27 58.3008C120.623 58.3008 120.954 58.2462 121.229 58.1589V59.3818C121.229 59.8077 121.549 60.1353 121.979 60.1353C122.397 60.1353 122.717 59.8186 122.717 59.3818V55.2218C122.717 54.796 122.397 54.4794 121.979 54.4794ZM126.773 54.4794C125.164 54.4794 123.941 55.7023 123.941 57.3073C123.941 58.9232 125.208 60.1353 126.928 60.1353C127.567 60.1353 128.162 59.9606 128.658 59.633C128.923 59.4582 129.033 59.2836 129.033 59.0433C129.033 58.7049 128.768 58.4537 128.427 58.4537C128.317 58.4537 128.217 58.4865 128.107 58.5521C127.776 58.7595 127.369 58.8687 126.972 58.8687C126.167 58.8687 125.616 58.4756 125.44 57.7987H128.548C129.033 57.7987 129.364 57.5037 129.364 57.0452V57.0125C129.364 55.5493 128.261 54.4794 126.773 54.4794ZM126.74 55.6694C127.435 55.6694 127.898 56.1172 127.92 56.7613H125.44C125.605 56.0953 126.09 55.6694 126.74 55.6694ZM133.133 60.1353C134.103 60.1353 134.897 59.7202 135.349 59.0324C135.437 58.9014 135.47 58.7922 135.47 58.6611C135.47 58.3008 135.173 58.0061 134.809 58.0061C134.61 58.0061 134.456 58.0607 134.302 58.2354C134.004 58.5629 133.629 58.7813 133.155 58.7813C132.318 58.7813 131.723 58.1699 131.723 57.2963C131.723 56.4338 132.318 55.8223 133.155 55.8223C133.64 55.8223 134.026 56.0407 134.302 56.3683C134.434 56.5321 134.599 56.5976 134.809 56.5976C135.173 56.5976 135.47 56.3027 135.47 55.9424C135.47 55.8223 135.437 55.7023 135.338 55.5493C134.919 54.916 134.059 54.4794 133.133 54.4794C131.491 54.4794 130.212 55.7131 130.212 57.2963C130.212 58.8795 131.491 60.1353 133.133 60.1353ZM141.499 58.9996L139.967 57.0998L141.356 55.6477C141.499 55.5056 141.577 55.3201 141.577 55.1454C141.577 54.7741 141.279 54.4903 140.893 54.4794C140.695 54.4684 140.519 54.5557 140.386 54.6978L138.656 56.543C138.468 56.7505 138.391 56.9143 138.391 57.0889C138.391 57.2527 138.457 57.4165 138.611 57.6129L140.474 59.895C140.596 60.0588 140.772 60.1353 140.992 60.1353C141.378 60.1353 141.676 59.8294 141.676 59.4582C141.676 59.2944 141.621 59.1525 141.499 58.9996ZM137.41 54.4794C136.98 54.4794 136.661 54.796 136.661 55.2218V59.3818C136.661 59.8077 136.98 60.1353 137.41 60.1353C137.829 60.1353 138.149 59.8077 138.149 59.3818V55.2218C138.149 54.796 137.84 54.4794 137.41 54.4794ZM147.264 54.4794C147.011 54.4794 146.812 54.5886 146.603 54.8396L144.365 57.6239V55.2218C144.365 54.796 144.046 54.4794 143.627 54.4794C143.197 54.4794 142.877 54.796 142.877 55.2218V59.3818C142.877 59.8077 143.197 60.1353 143.616 60.1353C143.869 60.1353 144.068 60.0261 144.277 59.7748L146.526 57.0125V59.3818C146.526 59.8077 146.845 60.1353 147.264 60.1353C147.683 60.1353 148.003 59.8077 148.003 59.3818V55.2218C148.003 54.796 147.683 54.4794 147.264 54.4794ZM152.059 54.4794C150.45 54.4794 149.226 55.7023 149.226 57.3073C149.226 58.9232 150.494 60.1353 152.213 60.1353C152.853 60.1353 153.448 59.9606 153.944 59.633C154.208 59.4582 154.319 59.2836 154.319 59.0433C154.319 58.7049 154.054 58.4537 153.712 58.4537C153.602 58.4537 153.503 58.4865 153.393 58.5521C153.062 58.7595 152.654 58.8687 152.257 58.8687C151.453 58.8687 150.902 58.4756 150.725 57.7987H153.834C154.319 57.7987 154.649 57.5037 154.649 57.0452V57.0125C154.649 55.5493 153.547 54.4794 152.059 54.4794ZM152.026 55.6694C152.72 55.6694 153.183 56.1172 153.205 56.7613H150.725C150.891 56.0953 151.376 55.6694 152.026 55.6694ZM160.734 60.1353C161.163 60.1353 161.472 59.8077 161.472 59.3818V55.8332H162.652C163.026 55.8332 163.291 55.5712 163.291 55.2109C163.291 54.8614 163.026 54.5885 162.652 54.5885H158.827C158.463 54.5885 158.187 54.8614 158.187 55.2109C158.187 55.5712 158.463 55.8332 158.827 55.8332H159.995V59.3818C159.995 59.8077 160.315 60.1353 160.734 60.1353ZM166.664 54.4794C165.021 54.4794 163.743 55.7131 163.743 57.2963C163.743 58.8795 165.021 60.1244 166.653 60.1244C168.295 60.1244 169.596 58.8687 169.596 57.2963C169.596 55.724 168.295 54.4794 166.664 54.4794ZM166.664 55.8223C167.468 55.8223 168.075 56.4556 168.075 57.3073C168.075 58.148 167.468 58.7703 166.664 58.7703C165.848 58.7703 165.253 58.1589 165.253 57.3073C165.253 56.4446 165.848 55.8223 166.664 55.8223ZM174.887 57.1217C175.173 56.8597 175.327 56.5101 175.327 56.1062C175.327 55.2 174.556 54.5994 173.387 54.5994H171.569C171.128 54.5994 170.808 54.927 170.808 55.3528V59.2508C170.808 59.6876 171.128 60.0042 171.569 60.0042H173.762C174.897 60.0042 175.702 59.3272 175.702 58.3664C175.702 57.8096 175.416 57.3728 174.887 57.1217ZM172.23 55.7786H173.354C173.751 55.7786 173.95 55.9315 173.95 56.2264C173.95 56.5321 173.729 56.6959 173.354 56.6959H172.23V55.7786ZM173.641 58.8141H172.23V57.7331H173.641C174.071 57.7331 174.335 57.9296 174.335 58.2572C174.335 58.5957 174.071 58.8141 173.641 58.8141ZM179.086 54.4794C178.292 54.4794 177.576 54.7195 177.113 55.1454C176.915 55.331 176.804 55.5276 176.804 55.735C176.804 56.0626 177.08 56.3356 177.444 56.3356C177.587 56.3356 177.708 56.2918 177.885 56.1608C178.204 55.8878 178.546 55.7569 178.932 55.7569C179.593 55.7569 179.957 56.1062 179.957 56.7068V56.9469H178.59C177.311 56.9469 176.529 57.5475 176.529 58.5192C176.529 59.4801 177.289 60.1353 178.414 60.1353C179.064 60.1353 179.615 59.9277 180.012 59.5564C180.078 59.884 180.365 60.1244 180.728 60.1244C181.136 60.1244 181.445 59.8186 181.445 59.3928V56.7941C181.445 55.3201 180.585 54.4794 179.086 54.4794ZM178.81 59.0542C178.325 59.0542 178.028 58.8249 178.028 58.4646C178.028 58.1043 178.292 57.9188 178.788 57.9188H179.957V57.9842C179.957 58.5957 179.461 59.0542 178.81 59.0542ZM186.052 54.4794C185.347 54.4794 184.763 54.7304 184.388 55.1672C184.366 54.7632 184.068 54.4684 183.671 54.4684C183.252 54.4684 182.933 54.785 182.933 55.2V61.3581C182.933 61.7839 183.252 62.1005 183.682 62.1005C184.101 62.1005 184.421 61.7839 184.421 61.3581V59.4801C184.796 59.895 185.369 60.1353 186.052 60.1353C187.584 60.1353 188.698 58.9341 188.698 57.2963C188.698 55.6585 187.584 54.4794 186.052 54.4794ZM185.777 58.7922C184.961 58.7922 184.399 58.1808 184.399 57.2963C184.399 56.4119 184.95 55.8113 185.777 55.8113C186.603 55.8113 187.187 56.4338 187.187 57.3073C187.187 58.1699 186.592 58.7922 185.777 58.7922ZM190.671 54.4794C190.23 54.4794 189.921 54.796 189.921 55.2218V59.2508C189.921 59.6876 190.241 60.0042 190.682 60.0042H192.478C193.79 60.0042 194.771 59.2617 194.771 57.9842C194.771 56.7176 193.79 55.9751 192.478 55.9751H191.409V55.2218C191.409 54.796 191.089 54.4794 190.671 54.4794ZM196.48 60.1353C196.909 60.1353 197.229 59.8077 197.229 59.3818V55.2218C197.229 54.796 196.909 54.4794 196.491 54.4794C196.061 54.4794 195.741 54.796 195.741 55.2218V59.3818C195.741 59.8077 196.061 60.1353 196.48 60.1353ZM192.368 57.2309C192.886 57.2309 193.261 57.5147 193.261 58.0061C193.261 58.4975 192.886 58.7595 192.379 58.7595H191.409V57.2309H192.368ZM206.389 54.4794C206.135 54.4794 205.937 54.5886 205.727 54.8396L203.49 57.6239V55.2218C203.49 54.796 203.17 54.4794 202.751 54.4794C202.321 54.4794 202.002 54.796 202.002 55.2218V59.3818C202.002 59.8077 202.321 60.1353 202.74 60.1353C202.994 60.1353 203.192 60.0261 203.402 59.7748L205.65 57.0125V59.3818C205.65 59.8077 205.97 60.1353 206.389 60.1353C206.808 60.1353 207.127 59.8077 207.127 59.3818V55.2218C207.127 54.796 206.808 54.4794 206.389 54.4794ZM215.339 57.2199C215.692 56.9251 215.89 56.5321 215.89 56.0626C215.89 55.0908 215.019 54.4794 213.652 54.4794C212.914 54.4794 212.264 54.6758 211.856 54.9925C211.613 55.1672 211.514 55.3418 211.514 55.5493C211.514 55.8988 211.801 56.1826 212.153 56.1826C212.297 56.1826 212.407 56.1389 212.55 56.0407C212.859 55.8332 213.19 55.746 213.631 55.746C214.171 55.746 214.435 55.8988 214.435 56.2154C214.435 56.5101 214.204 56.6849 213.807 56.6849H213.333C213.013 56.6849 212.771 56.9143 212.771 57.2309C212.771 57.5366 213.013 57.7767 213.333 57.7767H213.862C214.369 57.7767 214.656 57.9625 214.656 58.3008C214.656 58.6611 214.325 58.8687 213.708 58.8687C213.234 58.8687 212.815 58.7486 212.528 58.5192C212.385 58.421 212.275 58.3883 212.143 58.3883C211.779 58.3883 211.503 58.6611 211.503 59.0106C211.503 59.218 211.602 59.3928 211.823 59.5564C212.253 59.9169 212.947 60.1353 213.708 60.1353C215.152 60.1353 216.111 59.491 216.111 58.5083C216.111 57.9734 215.824 57.5037 215.339 57.2199ZM222.878 58.7595H222.658V55.3528C222.658 54.927 222.338 54.5994 221.908 54.5994H219.384C218.965 54.5994 218.635 54.8942 218.635 55.3092V55.3201C218.635 57.0343 218.381 58.0171 217.731 58.7595H217.676C217.235 58.7595 216.915 59.0762 216.915 59.502V60.9214C216.915 61.3473 217.235 61.6747 217.665 61.6747C218.084 61.6747 218.403 61.3581 218.403 60.9214V60.0042H222.151V60.9214C222.151 61.3473 222.471 61.6747 222.889 61.6747C223.308 61.6747 223.628 61.3581 223.628 60.9214V59.502C223.628 59.0762 223.308 58.7595 222.878 58.7595ZM220.112 55.8442H221.181V58.7595H219.296C219.847 58.148 220.101 57.2199 220.112 55.8442ZM227.177 54.4794C225.535 54.4794 224.256 55.7131 224.256 57.2963C224.256 58.8795 225.535 60.1244 227.166 60.1244C228.808 60.1244 230.109 58.8687 230.109 57.2963C230.109 55.724 228.808 54.4794 227.177 54.4794ZM227.177 55.8223C227.982 55.8223 228.588 56.4556 228.588 57.3073C228.588 58.148 227.982 58.7703 227.177 58.7703C226.361 58.7703 225.766 58.1589 225.766 57.3073C225.766 56.4446 226.361 55.8223 227.177 55.8223ZM234.441 54.4794C233.736 54.4794 233.151 54.7304 232.777 55.1672C232.754 54.7632 232.457 54.4684 232.06 54.4684C231.641 54.4684 231.322 54.785 231.322 55.2V61.3581C231.322 61.7839 231.641 62.1005 232.071 62.1005C232.49 62.1005 232.81 61.7839 232.81 61.3581V59.4801C233.184 59.895 233.757 60.1353 234.441 60.1353C235.973 60.1353 237.086 58.9341 237.086 57.2963C237.086 55.6585 235.973 54.4794 234.441 54.4794ZM234.165 58.7922C233.35 58.7922 232.788 58.1808 232.788 57.2963C232.788 56.4119 233.339 55.8113 234.165 55.8113C234.992 55.8113 235.576 56.4338 235.576 57.3073C235.576 58.1699 234.981 58.7922 234.165 58.7922ZM240.867 54.4794C239.225 54.4794 237.946 55.7131 237.946 57.2963C237.946 58.8795 239.225 60.1244 240.856 60.1244C242.498 60.1244 243.799 58.8687 243.799 57.2963C243.799 55.724 242.498 54.4794 240.867 54.4794ZM240.867 55.8223C241.672 55.8223 242.278 56.4556 242.278 57.3073C242.278 58.148 241.672 58.7703 240.867 58.7703C240.051 58.7703 239.456 58.1589 239.456 57.3073C239.456 56.4446 240.051 55.8223 240.867 55.8223ZM249.09 57.1217C249.376 56.8597 249.531 56.5101 249.531 56.1062C249.531 55.2 248.759 54.5994 247.591 54.5994H245.772C245.331 54.5994 245.011 54.927 245.011 55.3528V59.2508C245.011 59.6876 245.331 60.0042 245.772 60.0042H247.966C249.101 60.0042 249.905 59.3272 249.905 58.3664C249.905 57.8096 249.619 57.3728 249.09 57.1217ZM246.433 55.7786H247.558C247.955 55.7786 248.153 55.9315 248.153 56.2264C248.153 56.5321 247.932 56.6959 247.558 56.6959H246.433V55.7786ZM247.844 58.8141H246.433V57.7331H247.844C248.274 57.7331 248.539 57.9296 248.539 58.2572C248.539 58.5957 248.274 58.8141 247.844 58.8141ZM253.686 54.4794C252.044 54.4794 250.765 55.7131 250.765 57.2963C250.765 58.8795 252.044 60.1244 253.675 60.1244C255.317 60.1244 256.618 58.8687 256.618 57.2963C256.618 55.724 255.317 54.4794 253.686 54.4794ZM253.686 55.8223C254.491 55.8223 255.097 56.4556 255.097 57.3073C255.097 58.148 254.491 58.7703 253.686 58.7703C252.87 58.7703 252.275 58.1589 252.275 57.3073C252.275 56.4446 252.87 55.8223 253.686 55.8223ZM260.3 54.4794C258.69 54.4794 257.467 55.7023 257.467 57.3073C257.467 58.9232 258.734 60.1353 260.454 60.1353C261.093 60.1353 261.689 59.9606 262.184 59.633C262.449 59.4582 262.559 59.2836 262.559 59.0433C262.559 58.7049 262.295 58.4537 261.953 58.4537C261.843 58.4537 261.744 58.4865 261.633 58.5521C261.303 58.7595 260.895 58.8687 260.498 58.8687C259.693 58.8687 259.142 58.4756 258.966 57.7987H262.074C262.559 57.7987 262.89 57.5037 262.89 57.0452V57.0125C262.89 55.5493 261.788 54.4794 260.3 54.4794ZM260.267 55.6694C260.961 55.6694 261.424 56.1172 261.446 56.7613H258.966C259.131 56.0953 259.616 55.6694 260.267 55.6694ZM267.927 60.1353C268.357 60.1353 268.677 59.8186 268.677 59.3928V55.8442H270.65V59.3928C270.65 59.8186 270.969 60.1353 271.388 60.1353C271.818 60.1353 272.138 59.8186 272.138 59.3928V55.3418C272.138 54.916 271.818 54.5994 271.388 54.5994H267.938C267.508 54.5994 267.189 54.916 267.189 55.3418V59.3928C267.189 59.8186 267.508 60.1353 267.927 60.1353ZM278.112 54.4794C277.858 54.4794 277.66 54.5886 277.451 54.8396L275.213 57.6239V55.2218C275.213 54.796 274.893 54.4794 274.474 54.4794C274.045 54.4794 273.725 54.796 273.725 55.2218V59.3818C273.725 59.8077 274.045 60.1353 274.463 60.1353C274.717 60.1353 274.915 60.0261 275.125 59.7748L277.373 57.0125V59.3818C277.373 59.8077 277.693 60.1353 278.112 60.1353C278.531 60.1353 278.85 59.8077 278.85 59.3818V55.2218C278.85 54.796 278.531 54.4794 278.112 54.4794ZM282.223 60.1353C282.653 60.1353 282.962 59.8077 282.962 59.3818V55.8332H284.141C284.516 55.8332 284.781 55.5712 284.781 55.2109C284.781 54.8614 284.516 54.5885 284.141 54.5885H280.316C279.953 54.5885 279.677 54.8614 279.677 55.2109C279.677 55.5712 279.953 55.8332 280.316 55.8332H281.485V59.3818C281.485 59.8077 281.804 60.1353 282.223 60.1353ZM287.768 54.4794C286.974 54.4794 286.258 54.7195 285.795 55.1454C285.596 55.331 285.486 55.5276 285.486 55.735C285.486 56.0626 285.762 56.3356 286.125 56.3356C286.269 56.3356 286.39 56.2918 286.566 56.1608C286.886 55.8878 287.228 55.7569 287.613 55.7569C288.275 55.7569 288.638 56.1062 288.638 56.7068V56.9469H287.272C285.993 56.9469 285.211 57.5475 285.211 58.5192C285.211 59.4801 285.971 60.1353 287.095 60.1353C287.746 60.1353 288.297 59.9277 288.694 59.5564C288.76 59.884 289.046 60.1244 289.41 60.1244C289.818 60.1244 290.126 59.8186 290.126 59.3928V56.7941C290.126 55.3201 289.267 54.4794 287.768 54.4794ZM287.492 59.0542C287.007 59.0542 286.709 58.8249 286.709 58.4646C286.709 58.1043 286.974 57.9188 287.47 57.9188H288.638V57.9842C288.638 58.5957 288.142 59.0542 287.492 59.0542ZM295.902 54.4794C295.472 54.4794 295.164 54.796 295.164 55.2218V56.5757H293.102V55.2218C293.102 54.796 292.783 54.4794 292.364 54.4794C291.934 54.4794 291.614 54.796 291.614 55.2218V59.3818C291.614 59.8077 291.934 60.1244 292.364 60.1244C292.783 60.1244 293.102 59.8077 293.102 59.3818V57.8313H295.164V59.3818C295.164 59.8077 295.483 60.1244 295.902 60.1244C296.321 60.1244 296.641 59.8077 296.641 59.3818V55.2218C296.641 54.796 296.321 54.4794 295.902 54.4794ZM302.615 54.4794C302.361 54.4794 302.163 54.5886 301.954 54.8396L299.716 57.6239V55.2218C299.716 54.796 299.396 54.4794 298.977 54.4794C298.548 54.4794 298.228 54.796 298.228 55.2218V59.3818C298.228 59.8077 298.548 60.1353 298.966 60.1353C299.22 60.1353 299.418 60.0261 299.628 59.7748L301.876 57.0125V59.3818C301.876 59.8077 302.196 60.1353 302.615 60.1353C303.034 60.1353 303.353 59.8077 303.353 59.3818V55.2218C303.353 54.796 303.034 54.4794 302.615 54.4794ZM307.41 54.4794C305.8 54.4794 304.577 55.7023 304.577 57.3073C304.577 58.9232 305.845 60.1353 307.564 60.1353C308.203 60.1353 308.799 59.9606 309.295 59.633C309.559 59.4582 309.669 59.2836 309.669 59.0433C309.669 58.7049 309.405 58.4537 309.063 58.4537C308.953 58.4537 308.854 58.4865 308.743 58.5521C308.413 58.7595 308.005 58.8687 307.608 58.8687C306.803 58.8687 306.252 58.4756 306.076 57.7987H309.184C309.669 57.7987 310 57.5037 310 57.0452V57.0125C310 55.5493 308.898 54.4794 307.41 54.4794ZM307.377 55.6694C308.071 55.6694 308.534 56.1172 308.556 56.7613H306.076C306.241 56.0953 306.726 55.6694 307.377 55.6694Z" fill="#00662D"/>
<path d="M56.6994 40.9267C58.0608 40.7913 57.7893 39.2267 57.7891 38.2008V26.9284C57.7891 25.7527 58.0155 20.2964 57.504 19.6485C56.9351 18.9282 55.0864 19.1867 54.2048 19.1867C52.961 19.1867 51.6818 19.123 50.4501 19.2033C50.0232 22.9868 50.5311 24.561 48.875 29.0354C45.5427 38.0387 39.5447 42.22 30.7671 45.5281C28.1062 46.531 22.9543 48.1984 20.6199 49.751C19.8774 50.2449 19.3809 50.4381 19.3653 51.3446C19.3483 52.3465 19.1329 56.1445 19.6772 56.7703C20.4136 57.6165 23.7037 57.2452 24.8913 57.2452H36.5156C37.7469 57.2452 40.9929 57.7544 41.3207 56.27C41.7175 55.5817 41.4696 42.9705 41.4696 41.0571L56.3529 41.0572L56.6994 40.9267ZM19.3704 19.1867C15.7776 19.1867 12.1847 19.1867 8.59185 19.1867C2.35234 19.1867 2.98599 18.2462 2.98599 24.4233C2.98599 28.0138 2.98599 31.6042 2.98599 35.1947C2.98599 36.1539 2.79297 39.7892 3.20299 40.4104C3.90235 41.47 6.97851 41.2021 8.07998 40.9513C8.36796 40.1472 8.51777 38.875 8.8156 37.9217C9.10958 36.9815 9.45536 35.9839 9.88271 35.0963C14.3704 25.7772 22.228 21.9716 31.1873 17.7603C33.6171 16.6182 39.7311 14.1623 41.3816 12.476C41.5421 10.797 41.4051 8.39863 41.4051 6.63803C41.4051 4.04053 42.0203 2.95255 39.0427 2.95772L21.0995 2.95459C20.1099 2.962 19.4563 3.18071 19.3735 4.26722C19.3055 5.16149 19.3704 6.33914 19.3704 7.26451C19.3704 11.2387 19.3704 15.2129 19.3704 19.1869L19.3704 19.1867Z" fill="url(#paint0_linear)"/>
<path fill-rule="evenodd" clip-rule="evenodd" d="M56.6995 40.9268L41.4697 41.0572C41.4697 42.9706 41.7176 55.5818 41.3208 56.2701C40.993 57.7545 37.747 57.2454 36.5157 57.2454H24.8914C23.7038 57.2454 20.4137 57.6166 19.6773 56.7704C19.133 56.1447 19.3484 52.3466 19.3654 51.3447C19.381 50.4383 19.8775 50.245 20.62 49.7511C22.9544 48.1985 28.1063 46.5311 30.7672 45.5282C39.5448 42.2202 45.5428 38.0389 48.8751 29.0355C50.5312 24.5611 50.0233 22.9869 50.4502 19.2034C51.6819 19.1231 52.9611 19.1868 54.2049 19.1868C55.0865 19.1868 56.9352 18.9283 57.5041 19.6486C58.0156 20.2966 57.7892 25.7528 57.7892 26.9285V38.2009C57.7894 39.2269 58.0609 40.7915 56.6995 40.9268ZM20.2615 0H39.278H39.7544H40.0452C41.8762 0.0241157 43.2692 0.85616 44.0592 2.54233C44.8679 4.26817 44.2344 6.76864 44.5169 8.62592C45.6146 8.40528 46.0829 8.09631 47.1837 8.83868C48.6991 9.86036 49.5005 14.5249 49.6563 16.1571C54.0228 16.1571 59.1622 15.0925 60.5729 19.1132C60.6678 19.3832 60.7324 19.7506 60.7752 20.1782V25.8012V39.6782C60.7485 41.4329 59.7481 43.1623 58.0165 43.7325C56.5983 44.1995 46.7485 43.9622 44.4758 43.9622C44.4758 47.2604 44.4758 50.5587 44.4758 53.8569C44.4758 55.3448 44.5746 56.9621 43.822 58.0933C43.0414 59.2667 42.3129 59.8197 40.968 60.149C39.5427 60.4979 24.4657 60.1123 21.2409 60.2582C21.1452 61.652 20.22 62.7529 19.0457 63H18.0401C17.6474 62.9192 17.246 62.7421 16.8532 62.4511C15.6585 61.5659 14.263 59.6298 13.4168 58.3425C11.1299 54.8642 10.0597 50.5583 10.8498 46.2275C10.2128 46.0356 9.74018 45.9613 9.19748 45.4912C8.70652 45.0658 8.6054 44.4043 8.3092 43.9921C6.4044 43.7905 3.70501 44.4438 2.17007 43.4393C0.290983 42.2095 -0.000893757 41.1714 2.05109e-06 39.0776V38.9898V20.3855C0.0121218 19.9478 0.0270342 19.666 0.0457407 19.5841C0.39616 18.0431 1.7345 16.6592 3.31202 16.309C4.78272 15.9824 14.0493 16.1571 16.2995 16.1571C16.2995 13.7437 16.1023 4.79611 16.521 3.10033C16.927 1.45597 18.5113 0.205822 20.0977 0.0123217C20.1335 0.00814577 20.1897 0.00386269 20.2615 0ZM11.0858 43.4393C10.8777 41.8932 11.9701 38.2994 12.6051 36.7952C16.6524 27.2064 27.5864 22.8382 36.4521 18.8441C38.3358 17.9956 40.2625 17.0547 42.0209 15.9744C45.5809 13.7872 45.3259 12.1236 45.7622 11.4347C46.7191 12.5114 47.2918 18.9446 47.2577 20.5394C47.1926 23.5832 46.5864 26.417 45.3983 29.2196C43.4861 33.7305 39.5588 38.0098 35.1425 40.2229C30.2414 42.679 24.8197 43.9709 20.0593 46.4358C11.5353 50.8496 17.8529 58.1512 18.3841 60.2875C18.3784 60.2763 16.9898 58.8188 16.7622 58.5346C12.2596 52.915 12.3661 46.6803 15.6873 40.3495C17.9564 36.0243 22.3041 32.7678 26.4795 30.3826C27.5251 29.7852 30.3046 28.6714 30.9596 28.0606C29.1946 28.0773 25.5911 29.167 23.9547 29.8846C16.4072 33.1941 14.6438 37.1185 11.0858 43.4393ZM19.3705 19.1868C19.3705 15.2129 19.3705 11.2387 19.3705 7.26448C19.3705 6.3391 19.3056 5.16144 19.3737 4.26718C19.4565 3.18066 20.1101 2.96196 21.0997 2.95454L39.0428 2.95767C42.0205 2.95245 41.4052 4.04048 41.4052 6.63798C41.4052 8.39859 41.5423 10.797 41.3818 12.4759C39.7313 14.1622 33.6173 16.6182 31.1875 17.7603C22.2282 21.9715 14.3706 25.7772 9.88287 35.0963C9.45552 35.9839 9.10973 36.9815 8.81575 37.9217C8.51792 38.875 8.36811 40.1472 8.08014 40.9512C7.30084 41.1286 6.14788 41.0125 5.30677 41.0143C4.52363 41.0159 3.66728 41.1136 3.20315 40.4104C2.79313 39.7891 2.98616 36.1539 2.98616 35.1947C2.98616 31.6042 2.98616 28.0138 2.98616 24.4233C2.98616 18.2462 2.3525 19.1867 8.59201 19.1867C12.1848 19.1867 15.7778 19.1867 19.3706 19.1867L19.3705 19.1868Z" fill="white"/>
<path d="M11.0858 43.4394C14.6437 37.1186 16.4071 33.1941 23.9546 29.8847C25.591 29.1671 29.1946 28.0774 30.9595 28.0607C30.3045 28.6715 27.525 29.7853 26.4794 30.3827C22.3041 32.7678 17.9563 36.0244 15.6873 40.3496C12.366 46.6804 12.2595 52.9151 16.7621 58.5347C16.9898 58.8189 18.3783 60.2764 18.384 60.2876C17.8528 58.1513 11.5352 50.8497 20.0592 46.4359C24.8196 43.971 30.2413 42.6791 35.1425 40.223C39.5587 38.0099 43.486 33.7305 45.3982 29.2197C46.5863 26.4171 47.1925 23.5832 47.2576 20.5395C47.2917 18.9447 46.719 12.5115 45.7621 11.4348C45.3258 12.1237 45.5808 13.7873 42.0208 15.9745C40.2624 17.0548 38.3357 17.9957 36.452 18.8442C27.5863 22.8383 16.6524 27.2065 12.605 36.7953C11.97 38.2995 10.8777 41.8933 11.0858 43.4394Z" fill="url(#paint1_linear)"/>
<defs>
<linearGradient id="paint0_linear" x1="-113.927" y1="13.504" x2="-155.647" y2="48.8441" gradientUnits="userSpaceOnUse">
<stop stop-color="#E63315"/>
<stop offset="1" stop-color="white"/>
</linearGradient>
<linearGradient id="paint1_linear" x1="-11.1745" y1="-254.22" x2="27.9413" y2="-283.976" gradientUnits="userSpaceOnUse">
<stop stop-color="#94BF0B"/>
<stop offset="1" stop-color="white"/>
</linearGradient>
</defs>
</svg>
