<svg width="310" height="63" viewBox="0 0 310 63" fill="none" xmlns="http://www.w3.org/2000/svg">
<path fill-rule="evenodd" clip-rule="evenodd" d="M104.274 32.8017H103.298V8.92312C103.298 6.88654 101.807 5.41005 99.751 5.41005H85.7708C83.7663 5.41005 82.2244 6.88654 82.2244 8.92312V10.9596C82.2244 21.397 80.3227 28.2195 76.0567 32.8017C74.2063 32.9545 72.8185 34.4309 72.8185 36.3148V43.2901C72.8185 45.2757 74.3091 46.8031 76.3136 46.8031C78.2667 46.8031 79.7573 45.2757 79.7573 43.2901V39.0132H100.882V43.2901C100.882 45.2757 102.372 46.8031 104.377 46.8031C106.33 46.8031 107.82 45.2757 107.82 43.2901V36.3148C107.82 34.3291 106.33 32.8017 104.274 32.8017ZM88.8547 11.6215H96.3588V32.8017H83.201C86.953 28.1177 88.7519 21.2951 88.8547 11.6215ZM133.982 13.2507C132.8 13.2507 131.875 13.7599 130.898 14.9309L120.464 27.914V16.713C120.464 14.7272 118.974 13.2507 117.021 13.2507C115.016 13.2507 113.526 14.7272 113.526 16.713V36.1111C113.526 38.0968 115.016 39.6242 116.969 39.6242C118.151 39.6242 119.077 39.1151 120.053 37.9441L130.538 25.0628V36.1111C130.538 38.0968 132.029 39.6242 133.982 39.6242C135.935 39.6242 137.426 38.0968 137.426 36.1111V16.713C137.426 14.7272 135.935 13.2507 133.982 13.2507ZM155.62 13.2507C151.92 13.2507 148.579 14.3709 146.42 16.3565C145.495 17.2221 144.981 18.1386 144.981 19.1059C144.981 20.6333 146.266 21.9061 147.962 21.9061C148.63 21.9061 149.196 21.7025 150.018 21.0915C151.509 19.8187 153.102 19.2077 154.901 19.2077C157.985 19.2077 159.681 20.837 159.681 23.6372V24.7573H153.308C147.345 24.7573 143.696 27.5575 143.696 32.089C143.696 36.5694 147.243 39.6242 152.485 39.6242C155.518 39.6242 158.088 38.6569 159.938 36.9258C160.246 38.4532 161.583 39.5733 163.279 39.5733C165.18 39.5733 166.62 38.1477 166.62 36.162V24.0445C166.62 17.1711 162.611 13.2507 155.62 13.2507ZM154.336 34.5837C152.074 34.5837 150.686 33.5145 150.686 31.8344C150.686 30.1542 151.92 29.2886 154.233 29.2886H159.681V29.5941C159.681 32.4454 157.368 34.5837 154.336 34.5837ZM211.644 21.9061C211.644 13.3526 205.425 7.85383 195.557 7.80299V6.07188C195.557 4.0353 194.066 2.55887 192.113 2.55887C190.108 2.55887 188.618 4.0353 188.618 6.07188V7.80299C178.801 7.90483 172.53 13.4544 172.53 21.9061C172.53 30.4597 178.904 36.162 188.618 36.2639V38.3005C188.618 40.337 190.108 41.8135 192.113 41.8135C194.066 41.8135 195.557 40.337 195.557 38.3005V36.2639C205.322 36.162 211.644 30.5106 211.644 21.9061ZM179.366 22.1098C179.366 16.9166 182.861 13.7089 188.618 13.6581V30.3579C182.759 30.3069 179.366 27.2521 179.366 22.1098ZM195.557 30.3579V13.6581C201.313 13.6581 204.86 16.8656 204.86 22.1098C204.86 27.303 201.364 30.3579 195.557 30.3579ZM228.143 13.2507C224.442 13.2507 221.101 14.3709 218.943 16.3565C218.017 17.2221 217.503 18.1386 217.503 19.1059C217.503 20.6333 218.788 21.9061 220.484 21.9061C221.153 21.9061 221.718 21.7025 222.54 21.0915C224.031 19.8187 225.624 19.2077 227.423 19.2077C230.507 19.2077 232.203 20.837 232.203 23.6372V24.7573H225.83C219.868 24.7573 216.218 27.5575 216.218 32.089C216.218 36.5694 219.765 39.6242 225.008 39.6242C228.04 39.6242 230.61 38.6569 232.46 36.9258C232.769 38.4532 234.105 39.5733 235.801 39.5733C237.703 39.5733 239.142 38.1477 239.142 36.162V24.0445C239.142 17.1711 235.133 13.2507 228.143 13.2507ZM226.858 34.5837C224.596 34.5837 223.209 33.5145 223.209 31.8344C223.209 30.1542 224.442 29.2886 226.755 29.2886H232.203V29.5941C232.203 32.4454 229.89 34.5837 226.858 34.5837ZM261.346 13.2507C258.056 13.2507 255.332 14.4218 253.585 16.4583C253.482 14.5746 252.094 13.1999 250.244 13.1999C248.291 13.1999 246.8 14.6764 246.8 16.6111V45.3267C246.8 47.3122 248.291 48.7887 250.295 48.7887C252.248 48.7887 253.739 47.3122 253.739 45.3267V36.5693C255.486 38.5041 258.159 39.6242 261.346 39.6242C268.49 39.6242 273.681 34.0236 273.681 26.3866C273.681 18.7495 268.49 13.2507 261.346 13.2507ZM260.061 33.3618C256.257 33.3618 253.636 30.5106 253.636 26.3866C253.636 22.2626 256.206 19.4623 260.061 19.4623C263.916 19.4623 266.64 22.3644 266.64 26.4375C266.64 30.4597 263.864 33.3618 260.061 33.3618ZM283.601 39.6242C285.554 39.6242 287.045 38.0968 287.045 36.1111V26.1829L292.236 32.6999C292.75 33.26 293.521 33.5655 294.343 33.5655C295.165 33.5655 295.936 33.26 296.45 32.6999L301.642 26.1829V36.1111C301.642 38.0968 303.132 39.6242 305.085 39.6242C307.09 39.6242 308.58 38.0968 308.58 36.1111V16.713C308.58 14.7782 307.09 13.2507 305.085 13.2507C303.903 13.2507 302.926 13.8617 302.258 14.6764L294.343 24.961L286.428 14.6764C285.76 13.8617 284.783 13.2507 283.601 13.2507C281.596 13.2507 280.106 14.7782 280.106 16.713V36.1111C280.106 38.0968 281.596 39.6242 283.601 39.6242Z" fill="#00662D"/>
<path fill-rule="evenodd" clip-rule="evenodd" d="M78.572 58.7596H78.3516V55.3529C78.3516 54.9271 78.0319 54.5995 77.602 54.5995H75.078C74.6591 54.5995 74.3284 54.8943 74.3284 55.3093V55.3202C74.3284 57.0344 74.0749 58.0172 73.4246 58.7596H73.3695C72.9286 58.7596 72.6088 59.0763 72.6088 59.5021V60.9215C72.6088 61.3474 72.9286 61.6748 73.3584 61.6748C73.7773 61.6748 74.0969 61.3582 74.0969 60.9215V60.0043H77.8446V60.9215C77.8446 61.3474 78.1643 61.6748 78.5831 61.6748C79.0019 61.6748 79.3216 61.3582 79.3216 60.9215V59.5021C79.3216 59.0763 79.0019 58.7596 78.572 58.7596ZM75.8054 55.8443H76.8746V58.7596H74.9897C75.5409 58.1481 75.7944 57.22 75.8054 55.8443ZM84.8108 54.4795C84.5572 54.4795 84.3588 54.5887 84.1494 54.8397L81.9118 57.624V55.2219C81.9118 54.7961 81.5922 54.4795 81.1734 54.4795C80.7434 54.4795 80.4238 54.7961 80.4238 55.2219V59.3819C80.4238 59.8078 80.7434 60.1354 81.1623 60.1354C81.4158 60.1354 81.6142 60.0262 81.8237 59.7749L84.0723 57.0126V59.3819C84.0723 59.8078 84.3919 60.1354 84.8108 60.1354C85.2296 60.1354 85.5493 59.8078 85.5493 59.3819V55.2219C85.5493 54.7961 85.2296 54.4795 84.8108 54.4795ZM89.297 54.4795C88.5032 54.4795 87.7868 54.7196 87.324 55.1455C87.1254 55.3311 87.0152 55.5277 87.0152 55.7351C87.0152 56.0627 87.2908 56.3357 87.6545 56.3357C87.7979 56.3357 87.919 56.2919 88.0955 56.1609C88.4151 55.8879 88.7568 55.757 89.1426 55.757C89.8039 55.757 90.1677 56.1063 90.1677 56.7069V56.9471H88.8009C87.5223 56.9471 86.7397 57.5476 86.7397 58.5193C86.7397 59.4802 87.5002 60.1354 88.6245 60.1354C89.2749 60.1354 89.8261 59.9278 90.2228 59.5565C90.2889 59.8841 90.5756 60.1245 90.9393 60.1245C91.3471 60.1245 91.6557 59.8188 91.6557 59.3929V56.7942C91.6557 55.3202 90.7959 54.4795 89.297 54.4795ZM89.0214 59.0543C88.5364 59.0543 88.2387 58.825 88.2387 58.4647C88.2387 58.1044 88.5032 57.9189 88.9993 57.9189H90.1677V57.9843C90.1677 58.5958 89.6716 59.0543 89.0214 59.0543ZM96.1308 54.7415C95.4805 54.7415 94.9184 54.9926 94.4995 55.4403C94.5877 54.3374 95.2381 53.7041 96.6488 53.3438L97.6519 53.0818C98.0377 52.9836 98.2581 52.7434 98.2581 52.4158C98.2581 52.0555 97.9715 51.7606 97.6189 51.7606C97.5197 51.7606 97.4424 51.7825 97.189 51.8481L96.2521 52.0882C93.9043 52.6888 92.9454 53.9554 92.9454 56.4339V56.9361C92.9454 58.8688 94.0916 60.1245 95.8442 60.1245C97.4867 60.1245 98.7102 58.9671 98.7102 57.4275C98.7102 55.9425 97.5637 54.7415 96.1308 54.7415ZM95.8222 58.7814C95.0727 58.7814 94.4664 58.1809 94.4664 57.4275C94.4664 56.674 95.0616 56.0844 95.8222 56.0844C96.5937 56.0844 97.189 56.674 97.189 57.4275C97.189 58.1809 96.5937 58.7814 95.8222 58.7814ZM102.392 54.4795C100.782 54.4795 99.5589 55.7024 99.5589 57.3074C99.5589 58.9233 100.826 60.1354 102.546 60.1354C103.185 60.1354 103.781 59.9607 104.276 59.6331C104.541 59.4583 104.651 59.2837 104.651 59.0434C104.651 58.705 104.387 58.4538 104.045 58.4538C103.935 58.4538 103.836 58.4866 103.725 58.5522C103.395 58.7596 102.987 58.8688 102.59 58.8688C101.785 58.8688 101.234 58.4757 101.058 57.7988H104.166C104.651 57.7988 104.982 57.5038 104.982 57.0453V57.0126C104.982 55.5494 103.88 54.4795 102.392 54.4795ZM102.359 55.6695C103.053 55.6695 103.516 56.1173 103.538 56.7614H101.058C101.223 56.0954 101.708 55.6695 102.359 55.6695ZM107.969 60.1354C108.399 60.1354 108.708 59.8078 108.708 59.3819V55.8333H109.887C110.262 55.8333 110.526 55.5713 110.526 55.211C110.526 54.8615 110.262 54.5887 109.887 54.5887H106.062C105.698 54.5887 105.423 54.8615 105.423 55.211C105.423 55.5713 105.698 55.8333 106.062 55.8333H107.23V59.3819C107.23 59.8078 107.55 60.1354 107.969 60.1354ZM115.74 54.4795C115.486 54.4795 115.288 54.5887 115.078 54.8397L112.841 57.624V55.2219C112.841 54.7961 112.521 54.4795 112.102 54.4795C111.673 54.4795 111.353 54.7961 111.353 55.2219V59.3819C111.353 59.8078 111.673 60.1354 112.091 60.1354C112.345 60.1354 112.543 60.0262 112.753 59.7749L115.001 57.0126V59.3819C115.001 59.8078 115.321 60.1354 115.74 60.1354C116.159 60.1354 116.478 59.8078 116.478 59.3819V55.2219C116.478 54.7961 116.159 54.4795 115.74 54.4795ZM121.979 54.4795C121.549 54.4795 121.229 54.7961 121.229 55.2219V56.816C120.954 56.9034 120.656 56.9471 120.391 56.9471C119.609 56.9471 119.179 56.4885 119.179 55.6586V55.2219C119.179 54.7961 118.859 54.4795 118.44 54.4795C118.01 54.4795 117.702 54.7961 117.702 55.2219V55.757C117.702 57.2856 118.727 58.3009 120.27 58.3009C120.623 58.3009 120.954 58.2463 121.229 58.159V59.3819C121.229 59.8078 121.549 60.1354 121.979 60.1354C122.397 60.1354 122.717 59.8187 122.717 59.3819V55.2219C122.717 54.7961 122.397 54.4795 121.979 54.4795ZM126.773 54.4795C125.164 54.4795 123.941 55.7024 123.941 57.3074C123.941 58.9233 125.208 60.1354 126.928 60.1354C127.567 60.1354 128.162 59.9607 128.658 59.6331C128.923 59.4583 129.033 59.2837 129.033 59.0434C129.033 58.705 128.768 58.4538 128.427 58.4538C128.317 58.4538 128.217 58.4866 128.107 58.5522C127.776 58.7596 127.369 58.8688 126.972 58.8688C126.167 58.8688 125.616 58.4757 125.44 57.7988H128.548C129.033 57.7988 129.364 57.5038 129.364 57.0453V57.0126C129.364 55.5494 128.261 54.4795 126.773 54.4795ZM126.74 55.6695C127.435 55.6695 127.898 56.1173 127.92 56.7614H125.44C125.605 56.0954 126.09 55.6695 126.74 55.6695ZM133.133 60.1354C134.103 60.1354 134.897 59.7203 135.349 59.0325C135.437 58.9015 135.47 58.7923 135.47 58.6612C135.47 58.3009 135.173 58.0062 134.809 58.0062C134.61 58.0062 134.456 58.0608 134.302 58.2355C134.004 58.563 133.629 58.7814 133.155 58.7814C132.318 58.7814 131.723 58.17 131.723 57.2964C131.723 56.4339 132.318 55.8224 133.155 55.8224C133.64 55.8224 134.026 56.0408 134.302 56.3684C134.434 56.5322 134.599 56.5977 134.809 56.5977C135.173 56.5977 135.47 56.3028 135.47 55.9425C135.47 55.8224 135.437 55.7024 135.338 55.5494C134.919 54.9161 134.059 54.4795 133.133 54.4795C131.491 54.4795 130.212 55.7132 130.212 57.2964C130.212 58.8796 131.491 60.1354 133.133 60.1354ZM141.499 58.9998L139.967 57.0999L141.356 55.6478C141.499 55.5057 141.577 55.3202 141.577 55.1455C141.577 54.7742 141.279 54.4904 140.893 54.4795C140.695 54.4685 140.519 54.5558 140.386 54.6979L138.656 56.5431C138.468 56.7506 138.391 56.9144 138.391 57.089C138.391 57.2528 138.457 57.4166 138.611 57.613L140.474 59.8951C140.596 60.0589 140.772 60.1354 140.992 60.1354C141.378 60.1354 141.676 59.8295 141.676 59.4583C141.676 59.2945 141.621 59.1526 141.499 58.9998ZM137.41 54.4795C136.98 54.4795 136.661 54.7961 136.661 55.2219V59.3819C136.661 59.8078 136.98 60.1354 137.41 60.1354C137.829 60.1354 138.149 59.8078 138.149 59.3819V55.2219C138.149 54.7961 137.84 54.4795 137.41 54.4795ZM147.264 54.4795C147.011 54.4795 146.812 54.5887 146.603 54.8397L144.365 57.624V55.2219C144.365 54.7961 144.046 54.4795 143.627 54.4795C143.197 54.4795 142.877 54.7961 142.877 55.2219V59.3819C142.877 59.8078 143.197 60.1354 143.616 60.1354C143.869 60.1354 144.068 60.0262 144.277 59.7749L146.526 57.0126V59.3819C146.526 59.8078 146.845 60.1354 147.264 60.1354C147.683 60.1354 148.003 59.8078 148.003 59.3819V55.2219C148.003 54.7961 147.683 54.4795 147.264 54.4795ZM152.059 54.4795C150.45 54.4795 149.226 55.7024 149.226 57.3074C149.226 58.9233 150.494 60.1354 152.213 60.1354C152.853 60.1354 153.448 59.9607 153.944 59.6331C154.208 59.4583 154.319 59.2837 154.319 59.0434C154.319 58.705 154.054 58.4538 153.712 58.4538C153.602 58.4538 153.503 58.4866 153.393 58.5522C153.062 58.7596 152.654 58.8688 152.257 58.8688C151.453 58.8688 150.902 58.4757 150.725 57.7988H153.834C154.319 57.7988 154.649 57.5038 154.649 57.0453V57.0126C154.649 55.5494 153.547 54.4795 152.059 54.4795ZM152.026 55.6695C152.72 55.6695 153.183 56.1173 153.205 56.7614H150.725C150.891 56.0954 151.376 55.6695 152.026 55.6695ZM160.734 60.1354C161.163 60.1354 161.472 59.8078 161.472 59.3819V55.8333H162.652C163.026 55.8333 163.291 55.5713 163.291 55.211C163.291 54.8615 163.026 54.5887 162.652 54.5887H158.827C158.463 54.5887 158.187 54.8615 158.187 55.211C158.187 55.5713 158.463 55.8333 158.827 55.8333H159.995V59.3819C159.995 59.8078 160.315 60.1354 160.734 60.1354ZM166.664 54.4795C165.021 54.4795 163.743 55.7132 163.743 57.2964C163.743 58.8796 165.021 60.1245 166.653 60.1245C168.295 60.1245 169.596 58.8688 169.596 57.2964C169.596 55.7241 168.295 54.4795 166.664 54.4795ZM166.664 55.8224C167.468 55.8224 168.075 56.4557 168.075 57.3074C168.075 58.1481 167.468 58.7704 166.664 58.7704C165.848 58.7704 165.253 58.159 165.253 57.3074C165.253 56.4447 165.848 55.8224 166.664 55.8224ZM174.887 57.1218C175.173 56.8598 175.327 56.5102 175.327 56.1063C175.327 55.2001 174.556 54.5995 173.387 54.5995H171.569C171.128 54.5995 170.808 54.9271 170.808 55.3529V59.2509C170.808 59.6877 171.128 60.0043 171.569 60.0043H173.762C174.897 60.0043 175.702 59.3274 175.702 58.3665C175.702 57.8097 175.416 57.3729 174.887 57.1218ZM172.23 55.7787H173.354C173.751 55.7787 173.95 55.9316 173.95 56.2265C173.95 56.5322 173.729 56.696 173.354 56.696H172.23V55.7787ZM173.641 58.8142H172.23V57.7332H173.641C174.071 57.7332 174.335 57.9297 174.335 58.2573C174.335 58.5958 174.071 58.8142 173.641 58.8142ZM179.086 54.4795C178.292 54.4795 177.576 54.7196 177.113 55.1455C176.915 55.3311 176.804 55.5277 176.804 55.7351C176.804 56.0627 177.08 56.3357 177.444 56.3357C177.587 56.3357 177.708 56.2919 177.885 56.1609C178.204 55.8879 178.546 55.757 178.932 55.757C179.593 55.757 179.957 56.1063 179.957 56.7069V56.9471H178.59C177.311 56.9471 176.529 57.5476 176.529 58.5193C176.529 59.4802 177.289 60.1354 178.414 60.1354C179.064 60.1354 179.615 59.9278 180.012 59.5565C180.078 59.8841 180.365 60.1245 180.728 60.1245C181.136 60.1245 181.445 59.8188 181.445 59.3929V56.7942C181.445 55.3202 180.585 54.4795 179.086 54.4795ZM178.81 59.0543C178.325 59.0543 178.028 58.825 178.028 58.4647C178.028 58.1044 178.292 57.9189 178.788 57.9189H179.957V57.9843C179.957 58.5958 179.461 59.0543 178.81 59.0543ZM186.052 54.4795C185.347 54.4795 184.763 54.7305 184.388 55.1673C184.366 54.7633 184.068 54.4685 183.671 54.4685C183.252 54.4685 182.933 54.7851 182.933 55.2001V61.3582C182.933 61.784 183.252 62.1007 183.682 62.1007C184.101 62.1007 184.421 61.784 184.421 61.3582V59.4802C184.796 59.8951 185.369 60.1354 186.052 60.1354C187.584 60.1354 188.698 58.9342 188.698 57.2964C188.698 55.6586 187.584 54.4795 186.052 54.4795ZM185.777 58.7923C184.961 58.7923 184.399 58.1809 184.399 57.2964C184.399 56.412 184.95 55.8114 185.777 55.8114C186.603 55.8114 187.187 56.4339 187.187 57.3074C187.187 58.17 186.592 58.7923 185.777 58.7923ZM190.671 54.4795C190.23 54.4795 189.921 54.7961 189.921 55.2219V59.2509C189.921 59.6877 190.241 60.0043 190.682 60.0043H192.478C193.79 60.0043 194.771 59.2618 194.771 57.9843C194.771 56.7177 193.79 55.9752 192.478 55.9752H191.409V55.2219C191.409 54.7961 191.089 54.4795 190.671 54.4795ZM196.48 60.1354C196.909 60.1354 197.229 59.8078 197.229 59.3819V55.2219C197.229 54.7961 196.909 54.4795 196.491 54.4795C196.061 54.4795 195.741 54.7961 195.741 55.2219V59.3819C195.741 59.8078 196.061 60.1354 196.48 60.1354ZM192.368 57.231C192.886 57.231 193.261 57.5148 193.261 58.0062C193.261 58.4976 192.886 58.7596 192.379 58.7596H191.409V57.231H192.368ZM206.389 54.4795C206.135 54.4795 205.937 54.5887 205.727 54.8397L203.49 57.624V55.2219C203.49 54.7961 203.17 54.4795 202.751 54.4795C202.321 54.4795 202.002 54.7961 202.002 55.2219V59.3819C202.002 59.8078 202.321 60.1354 202.74 60.1354C202.994 60.1354 203.192 60.0262 203.402 59.7749L205.65 57.0126V59.3819C205.65 59.8078 205.97 60.1354 206.389 60.1354C206.808 60.1354 207.127 59.8078 207.127 59.3819V55.2219C207.127 54.7961 206.808 54.4795 206.389 54.4795ZM215.339 57.22C215.692 56.9252 215.89 56.5322 215.89 56.0627C215.89 55.0909 215.019 54.4795 213.652 54.4795C212.914 54.4795 212.264 54.6759 211.856 54.9926C211.613 55.1673 211.514 55.3419 211.514 55.5494C211.514 55.8989 211.801 56.1827 212.153 56.1827C212.297 56.1827 212.407 56.139 212.55 56.0408C212.859 55.8333 213.19 55.7461 213.631 55.7461C214.171 55.7461 214.435 55.8989 214.435 56.2155C214.435 56.5102 214.204 56.685 213.807 56.685H213.333C213.013 56.685 212.771 56.9144 212.771 57.231C212.771 57.5367 213.013 57.7768 213.333 57.7768H213.862C214.369 57.7768 214.656 57.9626 214.656 58.3009C214.656 58.6612 214.325 58.8688 213.708 58.8688C213.234 58.8688 212.815 58.7487 212.528 58.5193C212.385 58.4211 212.275 58.3884 212.143 58.3884C211.779 58.3884 211.503 58.6612 211.503 59.0107C211.503 59.2182 211.602 59.3929 211.823 59.5565C212.253 59.917 212.947 60.1354 213.708 60.1354C215.152 60.1354 216.111 59.4911 216.111 58.5084C216.111 57.9735 215.824 57.5038 215.339 57.22ZM222.878 58.7596H222.658V55.3529C222.658 54.9271 222.338 54.5995 221.908 54.5995H219.384C218.965 54.5995 218.635 54.8943 218.635 55.3093V55.3202C218.635 57.0344 218.381 58.0172 217.731 58.7596H217.676C217.235 58.7596 216.915 59.0763 216.915 59.5021V60.9215C216.915 61.3474 217.235 61.6748 217.665 61.6748C218.084 61.6748 218.403 61.3582 218.403 60.9215V60.0043H222.151V60.9215C222.151 61.3474 222.471 61.6748 222.889 61.6748C223.308 61.6748 223.628 61.3582 223.628 60.9215V59.5021C223.628 59.0763 223.308 58.7596 222.878 58.7596ZM220.112 55.8443H221.181V58.7596H219.296C219.847 58.1481 220.101 57.22 220.112 55.8443ZM227.177 54.4795C225.535 54.4795 224.256 55.7132 224.256 57.2964C224.256 58.8796 225.535 60.1245 227.166 60.1245C228.808 60.1245 230.109 58.8688 230.109 57.2964C230.109 55.7241 228.808 54.4795 227.177 54.4795ZM227.177 55.8224C227.982 55.8224 228.588 56.4557 228.588 57.3074C228.588 58.1481 227.982 58.7704 227.177 58.7704C226.361 58.7704 225.766 58.159 225.766 57.3074C225.766 56.4447 226.361 55.8224 227.177 55.8224ZM234.441 54.4795C233.736 54.4795 233.151 54.7305 232.777 55.1673C232.754 54.7633 232.457 54.4685 232.06 54.4685C231.641 54.4685 231.322 54.7851 231.322 55.2001V61.3582C231.322 61.784 231.641 62.1007 232.071 62.1007C232.49 62.1007 232.81 61.784 232.81 61.3582V59.4802C233.184 59.8951 233.757 60.1354 234.441 60.1354C235.973 60.1354 237.086 58.9342 237.086 57.2964C237.086 55.6586 235.973 54.4795 234.441 54.4795ZM234.165 58.7923C233.35 58.7923 232.788 58.1809 232.788 57.2964C232.788 56.412 233.339 55.8114 234.165 55.8114C234.992 55.8114 235.576 56.4339 235.576 57.3074C235.576 58.17 234.981 58.7923 234.165 58.7923ZM240.867 54.4795C239.225 54.4795 237.946 55.7132 237.946 57.2964C237.946 58.8796 239.225 60.1245 240.856 60.1245C242.498 60.1245 243.799 58.8688 243.799 57.2964C243.799 55.7241 242.498 54.4795 240.867 54.4795ZM240.867 55.8224C241.672 55.8224 242.278 56.4557 242.278 57.3074C242.278 58.1481 241.672 58.7704 240.867 58.7704C240.051 58.7704 239.456 58.159 239.456 57.3074C239.456 56.4447 240.051 55.8224 240.867 55.8224ZM249.09 57.1218C249.376 56.8598 249.531 56.5102 249.531 56.1063C249.531 55.2001 248.759 54.5995 247.591 54.5995H245.772C245.331 54.5995 245.011 54.9271 245.011 55.3529V59.2509C245.011 59.6877 245.331 60.0043 245.772 60.0043H247.966C249.101 60.0043 249.905 59.3274 249.905 58.3665C249.905 57.8097 249.619 57.3729 249.09 57.1218ZM246.433 55.7787H247.558C247.955 55.7787 248.153 55.9316 248.153 56.2265C248.153 56.5322 247.932 56.696 247.558 56.696H246.433V55.7787ZM247.844 58.8142H246.433V57.7332H247.844C248.274 57.7332 248.539 57.9297 248.539 58.2573C248.539 58.5958 248.274 58.8142 247.844 58.8142ZM253.686 54.4795C252.044 54.4795 250.765 55.7132 250.765 57.2964C250.765 58.8796 252.044 60.1245 253.675 60.1245C255.317 60.1245 256.618 58.8688 256.618 57.2964C256.618 55.7241 255.317 54.4795 253.686 54.4795ZM253.686 55.8224C254.491 55.8224 255.097 56.4557 255.097 57.3074C255.097 58.1481 254.491 58.7704 253.686 58.7704C252.87 58.7704 252.275 58.159 252.275 57.3074C252.275 56.4447 252.87 55.8224 253.686 55.8224ZM260.3 54.4795C258.69 54.4795 257.467 55.7024 257.467 57.3074C257.467 58.9233 258.734 60.1354 260.454 60.1354C261.093 60.1354 261.689 59.9607 262.184 59.6331C262.449 59.4583 262.559 59.2837 262.559 59.0434C262.559 58.705 262.295 58.4538 261.953 58.4538C261.843 58.4538 261.744 58.4866 261.633 58.5522C261.303 58.7596 260.895 58.8688 260.498 58.8688C259.693 58.8688 259.142 58.4757 258.966 57.7988H262.074C262.559 57.7988 262.89 57.5038 262.89 57.0453V57.0126C262.89 55.5494 261.788 54.4795 260.3 54.4795ZM260.267 55.6695C260.961 55.6695 261.424 56.1173 261.446 56.7614H258.966C259.131 56.0954 259.616 55.6695 260.267 55.6695ZM267.927 60.1354C268.357 60.1354 268.677 59.8188 268.677 59.3929V55.8443H270.65V59.3929C270.65 59.8188 270.969 60.1354 271.388 60.1354C271.818 60.1354 272.138 59.8188 272.138 59.3929V55.3419C272.138 54.9161 271.818 54.5995 271.388 54.5995H267.938C267.508 54.5995 267.189 54.9161 267.189 55.3419V59.3929C267.189 59.8188 267.508 60.1354 267.927 60.1354ZM278.112 54.4795C277.858 54.4795 277.66 54.5887 277.451 54.8397L275.213 57.624V55.2219C275.213 54.7961 274.893 54.4795 274.474 54.4795C274.045 54.4795 273.725 54.7961 273.725 55.2219V59.3819C273.725 59.8078 274.045 60.1354 274.463 60.1354C274.717 60.1354 274.915 60.0262 275.125 59.7749L277.373 57.0126V59.3819C277.373 59.8078 277.693 60.1354 278.112 60.1354C278.531 60.1354 278.85 59.8078 278.85 59.3819V55.2219C278.85 54.7961 278.531 54.4795 278.112 54.4795ZM282.223 60.1354C282.653 60.1354 282.962 59.8078 282.962 59.3819V55.8333H284.141C284.516 55.8333 284.781 55.5713 284.781 55.211C284.781 54.8615 284.516 54.5887 284.141 54.5887H280.316C279.953 54.5887 279.677 54.8615 279.677 55.211C279.677 55.5713 279.953 55.8333 280.316 55.8333H281.485V59.3819C281.485 59.8078 281.804 60.1354 282.223 60.1354ZM287.768 54.4795C286.974 54.4795 286.258 54.7196 285.795 55.1455C285.596 55.3311 285.486 55.5277 285.486 55.7351C285.486 56.0627 285.762 56.3357 286.125 56.3357C286.269 56.3357 286.39 56.2919 286.566 56.1609C286.886 55.8879 287.228 55.757 287.613 55.757C288.275 55.757 288.638 56.1063 288.638 56.7069V56.9471H287.272C285.993 56.9471 285.211 57.5476 285.211 58.5193C285.211 59.4802 285.971 60.1354 287.095 60.1354C287.746 60.1354 288.297 59.9278 288.694 59.5565C288.76 59.8841 289.046 60.1245 289.41 60.1245C289.818 60.1245 290.126 59.8188 290.126 59.3929V56.7942C290.126 55.3202 289.267 54.4795 287.768 54.4795ZM287.492 59.0543C287.007 59.0543 286.709 58.825 286.709 58.4647C286.709 58.1044 286.974 57.9189 287.47 57.9189H288.638V57.9843C288.638 58.5958 288.142 59.0543 287.492 59.0543ZM295.902 54.4795C295.472 54.4795 295.164 54.7961 295.164 55.2219V56.5758H293.102V55.2219C293.102 54.7961 292.783 54.4795 292.364 54.4795C291.934 54.4795 291.614 54.7961 291.614 55.2219V59.3819C291.614 59.8078 291.934 60.1245 292.364 60.1245C292.783 60.1245 293.102 59.8078 293.102 59.3819V57.8314H295.164V59.3819C295.164 59.8078 295.483 60.1245 295.902 60.1245C296.321 60.1245 296.641 59.8078 296.641 59.3819V55.2219C296.641 54.7961 296.321 54.4795 295.902 54.4795ZM302.615 54.4795C302.361 54.4795 302.163 54.5887 301.954 54.8397L299.716 57.624V55.2219C299.716 54.7961 299.396 54.4795 298.977 54.4795C298.548 54.4795 298.228 54.7961 298.228 55.2219V59.3819C298.228 59.8078 298.548 60.1354 298.966 60.1354C299.22 60.1354 299.418 60.0262 299.628 59.7749L301.876 57.0126V59.3819C301.876 59.8078 302.196 60.1354 302.615 60.1354C303.034 60.1354 303.353 59.8078 303.353 59.3819V55.2219C303.353 54.7961 303.034 54.4795 302.615 54.4795ZM307.41 54.4795C305.8 54.4795 304.577 55.7024 304.577 57.3074C304.577 58.9233 305.845 60.1354 307.564 60.1354C308.203 60.1354 308.799 59.9607 309.295 59.6331C309.559 59.4583 309.669 59.2837 309.669 59.0434C309.669 58.705 309.405 58.4538 309.063 58.4538C308.953 58.4538 308.854 58.4866 308.743 58.5522C308.413 58.7596 308.005 58.8688 307.608 58.8688C306.803 58.8688 306.252 58.4757 306.076 57.7988H309.184C309.669 57.7988 310 57.5038 310 57.0453V57.0126C310 55.5494 308.898 54.4795 307.41 54.4795ZM307.377 55.6695C308.071 55.6695 308.534 56.1173 308.556 56.7614H306.076C306.241 56.0954 306.726 55.6695 307.377 55.6695Z" fill="#00662D"/>
<path d="M56.6994 40.9268C58.0608 40.7914 57.7893 39.2268 57.7891 38.2009V26.9285C57.7891 25.7527 58.0155 20.2965 57.504 19.6486C56.9351 18.9283 55.0864 19.1868 54.2048 19.1868C52.961 19.1868 51.6818 19.1231 50.4501 19.2034C50.0232 22.9869 50.5311 24.5611 48.875 29.0355C45.5427 38.0388 39.5447 42.2201 30.7671 45.5282C28.1062 46.5311 22.9543 48.1985 20.6199 49.7511C19.8774 50.245 19.3809 50.4382 19.3653 51.3447C19.3483 52.3465 19.1329 56.1446 19.6772 56.7704C20.4136 57.6166 23.7037 57.2453 24.8913 57.2453H36.5156C37.7469 57.2453 40.9929 57.7545 41.3207 56.2701C41.7175 55.5818 41.4696 42.9706 41.4696 41.0572L56.3529 41.0573L56.6994 40.9268ZM19.3704 19.1868C15.7776 19.1868 12.1847 19.1868 8.59185 19.1868C2.35234 19.1868 2.98599 18.2463 2.98599 24.4234C2.98599 28.0139 2.98599 31.6043 2.98599 35.1948C2.98599 36.154 2.79297 39.7892 3.20299 40.4105C3.90235 41.4701 6.97851 41.2022 8.07998 40.9513C8.36796 40.1473 8.51777 38.8751 8.8156 37.9218C9.10958 36.9816 9.45536 35.984 9.88271 35.0964C14.3704 25.7773 22.228 21.9717 31.1873 17.7604C33.6171 16.6183 39.7311 14.1624 41.3816 12.4761C41.5421 10.7971 41.4051 8.39873 41.4051 6.63812C41.4051 4.04062 42.0203 2.95264 39.0427 2.95781L21.0995 2.95468C20.1099 2.96209 19.4563 3.1808 19.3735 4.26731C19.3055 5.16158 19.3704 6.33923 19.3704 7.26461C19.3704 11.2388 19.3704 15.213 19.3704 19.187L19.3704 19.1868Z" fill="url(#paint0_linear)"/>
<path fill-rule="evenodd" clip-rule="evenodd" d="M56.6995 40.9268L41.4697 41.0572C41.4697 42.9706 41.7176 55.5818 41.3208 56.2701C40.993 57.7545 37.747 57.2454 36.5157 57.2454H24.8914C23.7038 57.2454 20.4137 57.6166 19.6773 56.7704C19.133 56.1447 19.3484 52.3466 19.3654 51.3447C19.381 50.4383 19.8775 50.245 20.62 49.7511C22.9544 48.1985 28.1063 46.5311 30.7672 45.5282C39.5448 42.2202 45.5428 38.0389 48.8751 29.0355C50.5312 24.5611 50.0233 22.9869 50.4502 19.2034C51.6819 19.1231 52.9611 19.1868 54.2049 19.1868C55.0865 19.1868 56.9352 18.9283 57.5041 19.6486C58.0156 20.2966 57.7892 25.7528 57.7892 26.9285V38.2009C57.7894 39.2269 58.0609 40.7915 56.6995 40.9268ZM20.2615 0H39.278H39.7544H40.0452C41.8762 0.0241157 43.2692 0.85616 44.0592 2.54233C44.8679 4.26817 44.2344 6.76864 44.5169 8.62592C45.6146 8.40528 46.0829 8.09631 47.1837 8.83868C48.6991 9.86036 49.5005 14.5249 49.6563 16.1571C54.0228 16.1571 59.1622 15.0925 60.5729 19.1132C60.6678 19.3832 60.7324 19.7506 60.7752 20.1782V25.8012V39.6782C60.7485 41.4329 59.7481 43.1623 58.0165 43.7325C56.5983 44.1995 46.7485 43.9622 44.4758 43.9622C44.4758 47.2604 44.4758 50.5587 44.4758 53.8569C44.4758 55.3448 44.5746 56.9621 43.822 58.0933C43.0414 59.2667 42.3129 59.8197 40.968 60.149C39.5427 60.4979 24.4657 60.1123 21.2409 60.2582C21.1452 61.652 20.22 62.7529 19.0457 63H18.0401C17.6474 62.9192 17.246 62.7421 16.8532 62.4511C15.6585 61.5659 14.263 59.6298 13.4168 58.3425C11.1299 54.8642 10.0597 50.5583 10.8498 46.2275C10.2128 46.0356 9.74018 45.9613 9.19748 45.4912C8.70652 45.0658 8.6054 44.4043 8.3092 43.9921C6.4044 43.7905 3.70501 44.4438 2.17007 43.4393C0.290983 42.2095 -0.000893757 41.1714 2.05109e-06 39.0776V38.9898V20.3855C0.0121218 19.9478 0.0270342 19.666 0.0457407 19.5841C0.39616 18.0431 1.7345 16.6592 3.31202 16.309C4.78272 15.9824 14.0493 16.1571 16.2995 16.1571C16.2995 13.7437 16.1023 4.79611 16.521 3.10033C16.927 1.45597 18.5113 0.205822 20.0977 0.0123217C20.1335 0.00814577 20.1897 0.00386269 20.2615 0ZM11.0858 43.4393C10.8777 41.8932 11.9701 38.2994 12.6051 36.7952C16.6524 27.2064 27.5864 22.8382 36.4521 18.8441C38.3358 17.9956 40.2625 17.0547 42.0209 15.9744C45.5809 13.7872 45.3259 12.1236 45.7622 11.4347C46.7191 12.5114 47.2918 18.9446 47.2577 20.5394C47.1926 23.5832 46.5864 26.417 45.3983 29.2196C43.4861 33.7305 39.5588 38.0098 35.1425 40.2229C30.2414 42.679 24.8197 43.9709 20.0593 46.4358C11.5353 50.8496 17.8529 58.1512 18.3841 60.2875C18.3784 60.2763 16.9898 58.8188 16.7622 58.5346C12.2596 52.915 12.3661 46.6803 15.6873 40.3495C17.9564 36.0243 22.3041 32.7678 26.4795 30.3826C27.5251 29.7852 30.3046 28.6714 30.9596 28.0606C29.1946 28.0773 25.5911 29.167 23.9547 29.8846C16.4072 33.1941 14.6438 37.1185 11.0858 43.4393ZM19.3705 19.1868C19.3705 15.2129 19.3705 11.2387 19.3705 7.26448C19.3705 6.3391 19.3056 5.16144 19.3737 4.26718C19.4565 3.18066 20.1101 2.96196 21.0997 2.95454L39.0428 2.95767C42.0205 2.95245 41.4052 4.04048 41.4052 6.63798C41.4052 8.39859 41.5423 10.797 41.3818 12.4759C39.7313 14.1622 33.6173 16.6182 31.1875 17.7603C22.2282 21.9715 14.3706 25.7772 9.88287 35.0963C9.45552 35.9839 9.10973 36.9815 8.81575 37.9217C8.51792 38.875 8.36811 40.1472 8.08014 40.9512C7.30084 41.1286 6.14788 41.0125 5.30677 41.0143C4.52363 41.0159 3.66728 41.1136 3.20315 40.4104C2.79313 39.7891 2.98616 36.1539 2.98616 35.1947C2.98616 31.6042 2.98616 28.0138 2.98616 24.4233C2.98616 18.2462 2.3525 19.1867 8.59201 19.1867C12.1848 19.1867 15.7778 19.1867 19.3706 19.1867L19.3705 19.1868Z" fill="white"/>
<path d="M11.0858 43.4393C14.6437 37.1185 16.4071 33.1941 23.9546 29.8846C25.591 29.167 29.1946 28.0773 30.9595 28.0606C30.3045 28.6714 27.525 29.7852 26.4794 30.3826C22.3041 32.7678 17.9563 36.0243 15.6873 40.3495C12.366 46.6803 12.2595 52.915 16.7621 58.5346C16.9898 58.8188 18.3783 60.2763 18.384 60.2875C17.8528 58.1512 11.5352 50.8496 20.0592 46.4358C24.8196 43.9709 30.2413 42.679 35.1425 40.2229C39.5587 38.0098 43.486 33.7305 45.3982 29.2196C46.5863 26.417 47.1925 23.5832 47.2576 20.5394C47.2917 18.9446 46.719 12.5114 45.7621 11.4347C45.3258 12.1236 45.5808 13.7872 42.0208 15.9744C40.2624 17.0547 38.3357 17.9956 36.452 18.8441C27.5863 22.8382 16.6524 27.2064 12.605 36.7952C11.97 38.2994 10.8777 41.8932 11.0858 43.4393Z" fill="url(#paint1_linear)"/>
<defs>
<linearGradient id="paint0_linear" x1="-113.927" y1="13.5041" x2="-155.647" y2="48.8442" gradientUnits="userSpaceOnUse">
<stop stop-color="#E63315"/>
<stop offset="1" stop-color="white"/>
</linearGradient>
<linearGradient id="paint1_linear" x1="-11.1745" y1="-254.221" x2="27.9413" y2="-283.976" gradientUnits="userSpaceOnUse">
<stop stop-color="#94BF0B"/>
<stop offset="1" stop-color="white"/>
</linearGradient>
</defs>
</svg>
