<svg width="70" height="95" viewBox="0 0 70 95" fill="none" xmlns="http://www.w3.org/2000/svg">
<path d="M0.0501915 62.2366C6.93042 49.9451 10.3402 42.3136 24.9352 35.8779C28.0996 34.4826 35.0679 32.3635 38.4809 32.331C37.2143 33.5187 31.8395 35.6847 29.8176 36.8464C21.7435 41.4846 13.3361 47.8173 8.94829 56.2282C2.52589 68.5391 2.31995 80.6634 11.0268 91.5912C11.467 92.144 14.1521 94.9782 14.1631 95C13.136 90.8458 0.919378 76.6469 17.4024 68.0638C26.608 63.2705 37.0921 60.7582 46.5696 55.9821C55.1096 51.6784 62.7039 43.3567 66.4017 34.5848C68.6992 29.1348 69.8713 23.6241 69.9972 17.7051C70.063 14.6039 68.9556 2.09377 67.1053 0C66.2615 1.33968 66.7546 4.57468 59.8706 8.8279C56.4703 10.9287 52.7445 12.7584 49.1019 14.4085C31.9579 22.1753 10.8145 30.6698 2.98799 49.3165C1.76012 52.2416 -0.352202 59.2301 0.0501915 62.2366Z" fill="url(#paint0_linear)"/>
<defs>
<linearGradient id="paint0_linear" x1="-42.9954" y1="-516.598" x2="32.955" y2="-574.051" gradientUnits="userSpaceOnUse">
<stop stop-color="#94BF0B"/>
<stop offset="1" stop-color="white"/>
</linearGradient>
</defs>
</svg>
