<svg width="43" height="59" viewBox="0 0 43 59" fill="none" xmlns="http://www.w3.org/2000/svg">
<path d="M42.2283 38.1003C38.1002 30.596 36.0543 25.9368 27.2973 22.0076C25.3987 21.1557 21.2177 19.862 19.1699 19.8421C19.9298 20.5673 23.1547 21.8897 24.3679 22.5989C29.2123 25.4307 34.2568 29.297 36.8894 34.432C40.7429 41.9482 40.8665 49.3503 35.6423 56.0221C35.3782 56.3596 33.7672 58.0899 33.7606 58.1032C34.3768 55.5669 41.7068 46.8981 31.817 41.6579C26.2936 38.7315 20.0032 37.1977 14.3167 34.2818C9.19268 31.6543 4.63608 26.5736 2.41742 21.2182C1.03893 17.8908 0.335659 14.5263 0.26009 10.9127C0.220596 9.01928 0.885052 1.38151 1.99527 0.10321C2.5015 0.92112 2.20565 2.89617 6.33605 5.49287C8.37624 6.77545 10.6117 7.89256 12.7973 8.89998C23.0837 13.6418 35.7697 18.8279 40.4656 30.2122C41.2023 31.9981 42.4697 36.2648 42.2283 38.1003Z" fill="url(#paint0_linear)"/>
<defs>
<linearGradient id="paint0_linear" x1="68.0556" y1="-315.293" x2="21.9113" y2="-349.598" gradientUnits="userSpaceOnUse">
<stop stop-color="#00662D"/>
<stop offset="1" stop-color="white"/>
</linearGradient>
</defs>
</svg>
